<svg xmlns="http://www.w3.org/2000/svg" viewBox="0 0 32 32">
  <path d="M9 2h6l3 10h-6z" fill="#43A047"/>
  <path d="M23 2h-6l-3 10h6z" fill="#2E7D32"/>
  <circle cx="16" cy="20" r="9.5" fill="#B8743A"/>
  <circle cx="16" cy="20" r="7" fill="#E0A070"/>
  <path d="M13.6 23.5l1.6-.5c.2.6.6.9 1.2.9.7 0 1.1-.4 1.1-1 0-.7-.5-1-1.3-1h-.6v-1.5h.5c.6 0 1-.3 1-.8s-.4-.8-1-.8c-.5 0-.9.3-1.1.8l-1.6-.5c.4-1.1 1.4-1.7 2.7-1.7 1.6 0 2.7.8 2.7 2.1 0 .7-.4 1.2-1 1.5.8.3 1.3.9 1.3 1.7 0 1.4-1.2 2.3-2.9 2.3-1.4 0-2.5-.6-2.9-1.5z" fill="#B8743A"/>
</svg>
